HIERARCHY
ROOT root
{
	OFFSET 0.000000 0.000000 0.000000
	CHANNELS 6 Xposition Yposition Zposition Zrotation Yrotation Xrotation
	JOINT lhip
	{
		OFFSET 0.058581 -0.082280 -0.017664
		CHANNELS 3 Zrotation Yrotation Xrotation
		JOINT lknee
		{
			OFFSET 0.043451 -0.386469 0.008037
			CHANNELS 3 Zrotation Yrotation Xrotation
			JOINT lankle
			{
				OFFSET -0.014790 -0.426874 -0.037428
				CHANNELS 3 Zrotation Yrotation Xrotation
				JOINT ltoe
				{
					OFFSET 0.041054 -0.060286 0.122042
					CHANNELS 3 Zrotation Yrotation Xrotation
					End Site
					{
						OFFSET 0.000000 0.000000 0.000000
					}
				}
			}
		}
	}
	JOINT rhip
	{
		OFFSET -0.060310 -0.090513 -0.013543
		CHANNELS 3 Zrotation Yrotation Xrotation
		JOINT rknee
		{
			OFFSET -0.043257 -0.383688 -0.004843
			CHANNELS 3 Zrotation Yrotation Xrotation
			JOINT rankle
			{
				OFFSET 0.019056 -0.420046 -0.034562
				CHANNELS 3 Zrotation Yrotation Xrotation
				JOINT rtoe
				{
					OFFSET -0.034840 -0.062106 0.130323
					CHANNELS 3 Zrotation Yrotation Xrotation
					End Site
					{
						OFFSET 0.000000 0.000000 0.000000
					}
				}
			}
		}
	}
	JOINT lowerback
	{
		OFFSET 0.004439 0.124404 -0.038385
		CHANNELS 3 Zrotation Yrotation Xrotation
		JOINT upperback
		{
			OFFSET 0.004488 0.137956 0.026820
			CHANNELS 3 Zrotation Yrotation Xrotation
			JOINT chest
			{
				OFFSET -0.002265 0.056032 0.002855
				CHANNELS 3 Zrotation Yrotation Xrotation
				JOINT lowerneck
				{
					OFFSET -0.013390 0.211636 -0.033468
					CHANNELS 3 Zrotation Yrotation Xrotation
					JOINT upperneck
					{
						OFFSET 0.010113 0.088937 0.050410
						CHANNELS 3 Zrotation Yrotation Xrotation
						End Site
						{
							OFFSET 0.000000 0.000000 0.000000
						}
					}
				}
				JOINT lclavicle
				{
					OFFSET 0.071702 0.114000 -0.018898
					CHANNELS 3 Zrotation Yrotation Xrotation
					JOINT lshoulder
					{
						OFFSET 0.122921 0.045205 -0.019046
						CHANNELS 3 Zrotation Yrotation Xrotation
						JOINT lelbow
						{
							OFFSET 0.255332 -0.015649 -0.022946
							CHANNELS 3 Zrotation Yrotation Xrotation
							JOINT lwrist
							{
								OFFSET 0.265709 0.012698 -0.007375
								CHANNELS 3 Zrotation Yrotation Xrotation
								End Site
								{
									OFFSET 0.000000 0.000000 0.000000
								}
							}
						}
					}
				}
				JOINT rclavicle
				{
					OFFSET -0.082954 0.112472 -0.023707
					CHANNELS 3 Zrotation Yrotation Xrotation
					JOINT rshoulder
					{
						OFFSET -0.113228 0.046853 -0.008472
						CHANNELS 3 Zrotation Yrotation Xrotation
						JOINT relbow
						{
							OFFSET -0.260127 -0.014369 -0.031269
							CHANNELS 3 Zrotation Yrotation Xrotation
							JOINT rwrist
							{
								OFFSET -0.269108 0.006794 -0.006027
								CHANNELS 3 Zrotation Yrotation Xrotation
								End Site
								{
									OFFSET 0.000000 0.000000 0.000000
								}
							}
						}
					}
				}
			}
		}
	}
}
MOTION
Frames: 18
Frame Time: 0.033333
2.028778 0.133761 0.985365 -88.377531 1.829719 87.891411 1.263403 -0.111410 7.192571 -1.841958 -13.729629 3.104807 6.921916 10.465751 -19.539588 0.000000 -0.000000 0.000000 3.230370 -2.872022 4.530232 4.029081 1.503110 4.858877 1.325316 -4.495941 -13.526639 0.000000 -0.000000 0.000000 -1.843033 1.606060 2.630951 1.981104 -2.710370 2.719514 1.724770 -0.945829 4.590221 5.618232 0.925694 9.242403 5.511793 -0.486159 3.070963 -23.148581 5.201952 3.842993 -64.850864 -5.765166 8.331127 10.952410 -28.200368 6.060159 -3.681095 -0.651538 -9.221650 20.652809 -3.691386 2.276828 65.007620 1.089663 9.205856 -16.495386 25.721840 -3.641583 8.613859 0.291830 -11.450848 
2.029211 0.133752 0.985627 -88.419466 1.864498 88.148178 1.236170 -0.440387 6.886895 -1.829907 -13.563235 3.121725 6.630362 10.615082 -19.530244 0.000000 -0.000000 0.000000 3.338457 -2.512681 4.298326 4.042885 1.913619 4.733794 1.573799 -5.213068 -13.574276 0.000000 -0.000000 0.000000 -1.709277 1.497175 2.529735 2.093152 -2.452306 2.191924 1.601156 -1.237346 4.888006 5.875819 0.515700 6.770574 3.394036 -1.801807 8.686001 -23.630449 5.490084 3.989660 -64.397760 -6.246623 8.758409 11.081915 -27.878848 5.690300 -3.132419 -1.326848 -9.219208 21.037801 -4.024142 2.273419 64.559538 1.183123 9.902777 -16.667101 25.300792 -4.353430 8.147987 0.734447 -11.488454 
2.029108 0.133723 0.985679 -88.525646 1.885095 88.252357 1.229065 -0.457122 6.814220 -1.788865 -13.480956 3.073039 6.646686 10.673095 -19.485999 0.000000 -0.000000 0.000000 3.369379 -2.573657 4.215856 3.997109 2.128081 4.650404 1.501997 -5.274077 -13.478803 0.000000 -0.000000 0.000000 -1.689561 1.480889 2.513164 2.114254 -2.490718 2.017127 1.597492 -1.272156 4.972802 6.076254 0.452383 6.491205 3.384611 -1.979163 9.007033 -23.700536 5.572527 3.935957 -64.366902 -6.308826 8.830596 11.048165 -27.564193 5.646926 -2.921075 -1.247464 -9.014903 21.187983 -4.136717 2.102719 64.373243 1.149154 9.962556 -16.588366 24.847220 -4.414217 8.053768 0.808415 -11.320491 
2.028687 0.134015 0.985581 -88.666811 1.972733 88.194933 1.365482 -0.320073 6.967250 -1.810082 -13.442779 2.967451 6.465065 10.663135 -19.533194 0.000000 -0.000000 0.000000 3.424244 -2.360114 4.383623 4.085555 1.979091 4.623438 1.570166 -5.270330 -13.640819 0.000000 -0.000000 0.000000 -1.672892 1.452817 2.654638 2.214075 -2.481095 1.968977 1.651134 -1.345648 4.948161 6.300523 0.600020 6.499461 3.257620 -2.041242 9.434196 -23.905478 5.620703 3.952064 -64.273787 -6.272559 8.717288 11.152891 -27.167494 5.384769 -2.895169 -1.638228 -8.899646 21.450691 -4.286515 2.171780 64.022770 1.142248 9.960809 -16.875694 24.849314 -4.378990 7.467076 1.124217 -10.744945 
2.028581 0.134414 0.985394 -88.762487 1.996308 88.226418 1.468066 -0.315016 6.924059 -1.923378 -13.345087 3.000696 6.531972 10.709830 -19.574902 0.000000 -0.000000 0.000000 3.505231 -2.378049 4.421532 3.991412 2.111883 4.512104 1.533594 -5.167704 -13.653164 0.000000 -0.000000 0.000000 -1.722083 1.495537 2.651886 2.262211 -2.500316 1.979752 1.658341 -1.366236 4.918898 6.438690 0.557046 6.476746 3.292147 -2.076929 9.510928 -23.813784 5.683145 3.986527 -64.308113 -6.244448 8.724374 11.085292 -26.989692 5.475985 -3.231986 -1.706488 -9.078219 21.190427 -4.345422 2.155200 64.352449 0.980082 9.959099 -16.656587 24.399612 -4.348114 7.955530 0.843143 -11.351586 
2.027997 0.135044 0.985383 -88.915678 2.001469 88.220970 1.540701 -0.322953 7.041084 -1.973816 -13.317141 2.907162 6.461584 10.789226 -19.552658 0.000000 -0.000000 0.000000 3.493604 -2.561852 4.528017 4.000603 2.024289 4.432857 1.654569 -5.020359 -13.492121 0.000000 -0.000000 0.000000 -1.822359 1.511923 2.578135 2.294528 -2.554928 2.048325 1.698155 -1.356383 5.033356 6.676773 0.398824 6.095453 3.342720 -2.387807 9.727872 -23.889320 5.681604 4.002515 -64.202767 -6.096058 8.742740 11.140243 -26.688237 5.364637 -2.997182 -1.529620 -8.972546 21.269362 -4.401904 2.097456 64.297360 0.824155 10.060486 -16.482140 24.175636 -4.193616 8.065542 0.868991 -11.414586 
2.027758 0.135253 0.985428 -89.012369 2.038568 88.236386 1.545670 -0.408801 6.977562 -1.961873 -13.257193 3.083953 6.452920 10.873651 -19.599343 0.000000 -0.000000 0.000000 3.524977 -2.606095 4.551032 4.028650 2.125568 4.354401 1.789162 -4.986369 -13.453082 0.000000 -0.000000 0.000000 -1.824195 1.556445 2.616560 2.335962 -2.591659 1.986471 1.703395 -1.421785 5.016988 6.859342 0.489359 6.028966 3.304540 -2.382383 10.100708 -23.986360 5.745469 4.024882 -64.191895 -6.027743 8.722338 11.185736 -26.112791 5.284535 -2.977834 -1.491360 -8.845494 21.329850 -4.606263 2.030695 64.194405 0.738445 10.098121 -16.259399 23.979458 -4.126317 8.262242 0.918705 -11.378677 
2.027443 0.135587 0.985547 -89.075846 2.090583 88.265400 1.659179 -0.273376 6.750376 -2.110594 -13.206185 3.541901 6.343623 10.818694 -19.789149 0.000000 -0.000000 0.000000 3.529937 -2.599254 4.566077 4.145989 2.177639 4.337873 1.753608 -4.939998 -13.335342 0.000000 -0.000000 0.000000 -1.777813 1.475184 2.595858 2.353795 -2.641626 1.983949 1.674638 -1.377860 5.025950 7.085429 0.443952 5.867695 3.253597 -2.609511 10.468889 -24.098968 5.817430 3.983114 -64.091577 -5.903848 8.666285 11.154222 -25.623609 5.201840 -3.078099 -1.659760 -8.783215 21.451177 -4.742850 1.967894 64.098359 0.709472 10.089861 -16.129684 23.699291 -4.036246 8.269282 0.700443 -11.243781 
2.027088 0.136062 0.985504 -89.239075 2.105254 88.193209 1.672200 -0.222209 6.948403 -2.032932 -13.189695 3.379060 6.326267 10.924336 -19.708074 0.000000 -0.000000 0.000000 3.597660 -2.533787 4.643380 4.135980 2.300840 4.391630 1.666598 -4.997556 -13.363909 0.000000 -0.000000 0.000000 -1.773941 1.423925 2.614432 2.340625 -2.654864 2.058546 1.659796 -1.289428 4.976655 7.173848 0.542279 5.928315 3.233554 -2.563249 10.730159 -24.076631 5.797285 4.183161 -64.111352 -5.826153 8.562956 11.262873 -25.218285 5.073715 -3.208253 -1.547842 -8.844022 21.457516 -4.744581 2.093648 64.197772 0.641772 10.093497 -16.117931 23.589726 -3.878395 8.369688 0.428785 -11.181287 
2.026809 0.136359 0.985408 -89.379791 2.079545 88.159734 1.619033 -0.241953 7.073498 -1.957424 -13.192931 3.259855 6.372524 11.061196 -19.691363 0.000000 -0.000000 0.000000 3.588941 -2.495563 4.677808 4.103964 2.309995 4.383705 1.710086 -4.948436 -13.345255 0.000000 -0.000000 0.000000 -1.796188 1.405266 2.701657 2.331581 -2.647850 2.040183 1.671057 -1.221408 4.811072 7.222872 0.559446 6.160746 3.163146 -2.471722 11.161661 -24.096917 5.864471 4.397050 -64.129091 -5.704354 8.387759 11.351292 -24.787131 4.646298 -3.664073 -1.822539 -9.499157 21.293688 -4.825476 2.374188 64.448713 0.565317 10.031888 -16.195774 23.451425 -3.845624 8.618298 0.488846 -11.531663 
2.026753 0.136730 0.985439 -89.378514 2.093918 88.134536 1.650504 -0.203598 7.089274 -1.953681 -13.248556 3.299916 6.351462 11.077578 -19.690572 0.000000 -0.000000 0.000000 3.635818 -2.475071 4.725333 4.089330 2.281413 4.390470 1.656901 -4.932177 -13.297905 0.000000 -0.000000 0.000000 -1.831132 1.372390 2.751055 2.357479 -2.677547 2.068295 1.710386 -1.109004 4.713873 7.336567 0.530650 6.247354 3.133775 -2.562833 11.447591 -24.089825 5.978336 4.409497 -64.230853 -5.691167 8.299251 11.375932 -24.475587 4.524503 -3.858181 -1.695848 -9.513942 21.308172 -4.885600 2.433275 64.442734 0.560454 10.000087 -16.180416 23.251856 -3.912755 8.711232 0.524397 -11.546443 
2.026622 0.137034 0.985336 -89.269390 2.085997 88.087595 1.675518 -0.184889 7.128911 -1.914203 -13.264533 3.296937 6.353288 11.022673 -19.674268 0.000000 -0.000000 0.000000 3.656419 -2.569116 4.829745 4.049378 2.281803 4.293100 1.646665 -4.938618 -13.284674 0.000000 -0.000000 0.000000 -1.795491 1.315110 2.775831 2.333024 -2.804359 2.223119 1.690366 -1.052624 4.574475 7.470331 0.564517 6.229388 3.113846 -2.567619 11.525180 -24.124521 5.987699 4.493476 -64.245544 -5.509607 8.291359 11.401657 -24.335173 4.641392 -3.765453 -1.615587 -9.241325 21.336023 -4.837414 2.633232 64.454097 0.637613 9.864362 -16.115644 22.960594 -3.959202 8.604042 0.600899 -11.410801 
2.026739 0.137339 0.985328 -89.233997 2.051042 88.109985 1.641071 -0.266328 7.099039 -1.911410 -13.337715 3.285620 6.276780 11.106993 -19.694378 0.000000 -0.000000 0.000000 3.672131 -2.472783 4.831637 4.035200 2.286185 4.226401 1.788310 -5.038070 -13.406709 0.000000 -0.000000 0.000000 -1.779782 1.321435 2.771138 2.333119 -2.794355 2.263840 1.660840 -1.046495 4.726765 7.851585 0.757638 5.922433 3.144490 -2.645076 11.676085 -24.232480 6.122131 4.212985 -64.178045 -5.515821 8.353607 11.311255 -24.143135 4.568367 -3.716570 -1.539936 -8.915450 21.366488 -4.970273 2.406215 64.502068 0.558453 10.019616 -16.215065 23.031370 -3.994110 8.515399 0.484174 -11.242318 
2.026556 0.137538 0.985350 -89.137677 2.022839 88.104005 1.628603 -0.310408 7.103918 -1.909259 -13.404223 3.295884 6.185420 11.122260 -19.734576 0.000000 -0.000000 0.000000 3.650767 -2.526647 4.882359 4.039193 2.256141 4.208947 1.706867 -5.031049 -13.377637 0.000000 -0.000000 0.000000 -1.739848 1.376536 2.741930 2.361593 -2.790519 2.254729 1.587218 -1.090519 4.840835 8.107042 0.697698 5.631316 3.045015 -3.043436 12.037591 -24.361190 6.158225 4.091594 -64.071937 -5.404856 8.505986 11.286838 -24.170012 4.667306 -3.731134 -1.754570 -8.723469 21.420426 -4.959244 2.413759 64.549008 0.583872 10.076116 -16.377610 22.970470 -4.145816 8.349861 0.512856 -11.283753 
2.026678 0.137786 0.985356 -89.033092 2.008713 88.152559 1.675608 -0.353011 6.985780 -2.013076 -13.305387 3.390266 6.128345 11.057266 -19.675426 0.000000 -0.000000 0.000000 3.630978 -2.586531 4.820055 4.103175 2.241694 4.206190 1.763333 -5.032948 -13.380939 0.000000 -0.000000 0.000000 -1.744188 1.417242 2.636792 2.380440 -2.754759 2.330356 1.557520 -1.120695 4.936889 8.302961 0.777669 5.401248 2.955367 -3.115321 12.540975 -24.476903 6.193917 4.023129 -64.057464 -5.523359 8.516427 11.278634 -24.148586 4.369125 -3.667392 -1.835147 -8.701150 21.580937 -5.068834 2.261896 64.336497 0.801628 10.114561 -16.347726 22.902851 -4.349709 8.238369 0.638925 -11.148850 
2.027116 0.138059 0.985501 -88.914327 1.979525 88.199640 1.668205 -0.502288 6.854291 -2.059112 -13.387622 3.470056 6.039949 11.106143 -19.680664 0.000000 -0.000000 0.000000 3.664499 -2.472896 4.698359 4.014142 2.179654 4.288066 1.928036 -5.172684 -13.301828 0.000000 -0.000000 0.000000 -1.759587 1.446147 2.635563 2.444275 -2.714383 2.311224 1.593697 -1.215836 5.070415 8.616573 0.997515 5.053692 2.962474 -3.007913 12.588156 -24.707329 6.315976 3.785821 -63.931453 -5.529747 8.579777 11.228263 -24.312344 4.208660 -3.555086 -1.802005 -8.580922 21.555292 -5.174540 2.084158 64.229287 0.910217 10.281975 -16.220964 23.027068 -4.437698 8.275614 0.671064 -11.144995 
2.027385 0.138367 0.985509 -88.819799 1.957239 88.163406 1.669959 -0.587536 6.830557 -2.068102 -13.342411 3.534942 6.011780 11.105085 -19.642327 0.000000 -0.000000 0.000000 3.603553 -2.470920 4.829610 4.142578 2.204236 4.132986 1.971035 -5.251727 -13.274237 0.000000 -0.000000 0.000000 -1.764834 1.480293 2.639318 2.468611 -2.709295 2.397882 1.616185 -1.103489 5.105012 8.838535 1.102455 4.741309 2.947349 -3.201808 12.986702 -24.772468 6.264115 3.725261 -63.907351 -5.664241 8.665615 11.143419 -24.363168 4.201056 -3.658370 -1.907447 -8.616850 21.585383 -5.106555 2.001128 64.123977 1.013083 10.374542 -16.279966 22.865784 -4.514528 8.213612 0.658302 -11.068720 
2.027605 0.138672 0.985368 -88.675809 1.915160 88.119336 1.678227 -0.592032 6.793787 -2.110008 -13.415445 3.628968 6.022090 11.010403 -19.691080 0.000000 -0.000000 0.000000 3.494525 -2.601998 4.873965 4.257819 2.057506 4.098322 1.965229 -5.172044 -13.174681 0.000000 -0.000000 0.000000 -1.695589 1.524645 2.808323 2.423939 -2.721935 2.297941 1.561681 -1.098192 4.785955 8.597803 0.693531 4.604555 2.772373 -3.590663 13.371956 -24.677164 6.136817 4.119982 -63.934042 -5.665394 8.608282 11.132894 -24.588637 4.317496 -3.759266 -1.823519 -8.741678 21.461616 -4.936003 2.299842 64.294977 0.970750 10.218881 -16.432928 23.066373 -4.386859 8.254386 0.639950 -11.014946 
